<mxfile host="app.diagrams.net" agent="Mozilla/5.0 (Windows NT 10.0; Win64; x64) AppleWebKit/537.36 (KHTML, like Gecko) Chrome/127.0.0.0 Safari/537.36" version="24.7.7">
  <diagram name="Page-1" id="oalPUAC3WF_JFT90Baml">
    <mxGraphModel dx="954" dy="592" grid="1" gridSize="10" guides="1" tooltips="1" connect="1" arrows="1" fold="1" page="1" pageScale="1" pageWidth="827" pageHeight="1169" math="0" shadow="0">
      <root>
        <mxCell id="0" />
        <mxCell id="1" parent="0" />
        <mxCell id="M14YiBmKtO4GHtCGdOZ9-15" style="edgeStyle=orthogonalEdgeStyle;rounded=0;orthogonalLoop=1;jettySize=auto;html=1;entryX=0.5;entryY=0;entryDx=0;entryDy=0;" edge="1" parent="1" source="M14YiBmKtO4GHtCGdOZ9-1" target="M14YiBmKtO4GHtCGdOZ9-12">
          <mxGeometry relative="1" as="geometry" />
        </mxCell>
        <mxCell id="M14YiBmKtO4GHtCGdOZ9-17" style="edgeStyle=orthogonalEdgeStyle;rounded=0;orthogonalLoop=1;jettySize=auto;html=1;entryX=0.5;entryY=0;entryDx=0;entryDy=0;" edge="1" parent="1" source="M14YiBmKtO4GHtCGdOZ9-1" target="M14YiBmKtO4GHtCGdOZ9-14">
          <mxGeometry relative="1" as="geometry" />
        </mxCell>
        <mxCell id="M14YiBmKtO4GHtCGdOZ9-20" value="" style="edgeStyle=orthogonalEdgeStyle;rounded=0;orthogonalLoop=1;jettySize=auto;html=1;" edge="1" parent="1" source="M14YiBmKtO4GHtCGdOZ9-1" target="M14YiBmKtO4GHtCGdOZ9-19">
          <mxGeometry relative="1" as="geometry" />
        </mxCell>
        <mxCell id="M14YiBmKtO4GHtCGdOZ9-1" value="Dependencies" style="rounded=0;whiteSpace=wrap;html=1;" vertex="1" parent="1">
          <mxGeometry x="340" y="420" width="120" height="60" as="geometry" />
        </mxCell>
        <mxCell id="M14YiBmKtO4GHtCGdOZ9-22" value="" style="edgeStyle=orthogonalEdgeStyle;rounded=0;orthogonalLoop=1;jettySize=auto;html=1;" edge="1" parent="1" source="M14YiBmKtO4GHtCGdOZ9-2" target="M14YiBmKtO4GHtCGdOZ9-21">
          <mxGeometry relative="1" as="geometry" />
        </mxCell>
        <mxCell id="M14YiBmKtO4GHtCGdOZ9-2" value="This command will print to stdout all the versions of packages that are installed, as well as their dependencies when --all is specified, in a tree structure." style="rounded=0;whiteSpace=wrap;html=1;" vertex="1" parent="1">
          <mxGeometry x="30" y="20" width="170" height="160" as="geometry" />
        </mxCell>
        <mxCell id="M14YiBmKtO4GHtCGdOZ9-8" value="" style="edgeStyle=orthogonalEdgeStyle;rounded=0;orthogonalLoop=1;jettySize=auto;html=1;" edge="1" parent="1" source="M14YiBmKtO4GHtCGdOZ9-4" target="M14YiBmKtO4GHtCGdOZ9-7">
          <mxGeometry relative="1" as="geometry" />
        </mxCell>
        <mxCell id="M14YiBmKtO4GHtCGdOZ9-9" value="No" style="edgeLabel;html=1;align=center;verticalAlign=middle;resizable=0;points=[];" vertex="1" connectable="0" parent="M14YiBmKtO4GHtCGdOZ9-8">
          <mxGeometry x="-0.0095" y="4" relative="1" as="geometry">
            <mxPoint as="offset" />
          </mxGeometry>
        </mxCell>
        <mxCell id="M14YiBmKtO4GHtCGdOZ9-11" value="" style="edgeStyle=orthogonalEdgeStyle;rounded=0;orthogonalLoop=1;jettySize=auto;html=1;" edge="1" parent="1" source="M14YiBmKtO4GHtCGdOZ9-4" target="M14YiBmKtO4GHtCGdOZ9-10">
          <mxGeometry relative="1" as="geometry" />
        </mxCell>
        <mxCell id="M14YiBmKtO4GHtCGdOZ9-4" value="Know why a package is&lt;div&gt;listed in package.json&lt;/div&gt;" style="rhombus;whiteSpace=wrap;html=1;" vertex="1" parent="1">
          <mxGeometry x="329" y="10" width="170" height="150" as="geometry" />
        </mxCell>
        <mxCell id="M14YiBmKtO4GHtCGdOZ9-5" style="edgeStyle=orthogonalEdgeStyle;rounded=0;orthogonalLoop=1;jettySize=auto;html=1;entryX=1.024;entryY=0.428;entryDx=0;entryDy=0;entryPerimeter=0;" edge="1" parent="1" source="M14YiBmKtO4GHtCGdOZ9-4" target="M14YiBmKtO4GHtCGdOZ9-2">
          <mxGeometry relative="1" as="geometry" />
        </mxCell>
        <mxCell id="M14YiBmKtO4GHtCGdOZ9-6" value="Yes" style="edgeLabel;html=1;align=center;verticalAlign=middle;resizable=0;points=[];" vertex="1" connectable="0" parent="M14YiBmKtO4GHtCGdOZ9-5">
          <mxGeometry x="0.1914" y="-3" relative="1" as="geometry">
            <mxPoint x="-1" as="offset" />
          </mxGeometry>
        </mxCell>
        <mxCell id="M14YiBmKtO4GHtCGdOZ9-7" value="Use &lt;span style=&quot;background-color: rgb(169, 196, 235);&quot;&gt;npm explain&lt;/span&gt;" style="whiteSpace=wrap;html=1;" vertex="1" parent="1">
          <mxGeometry x="604" y="55" width="120" height="60" as="geometry" />
        </mxCell>
        <mxCell id="M14YiBmKtO4GHtCGdOZ9-10" value="" style="shape=image;verticalLabelPosition=bottom;labelBackgroundColor=default;verticalAlign=top;aspect=fixed;imageAspect=0;image=data:image/png,iVBORw0KGgoAAAANSUhEUgAAA4kAAADdCAYAAAAW2TcpAAAAAXNSR0IArs4c6QAAAARnQU1BAACxjwv8YQUAAAAJcEhZcwAADsMAAA7DAcdvqGQAAEXZSURBVHhe7d0PWFT3nS/+d6/NJFSxtxi3TuwC7mVxg6RXEx4S2aWyJcF/iyaLlIYQO5o8YLpA00BMBvZXibeKMdB6gVaYm4apIaQUaQo0ilqyuPTBhIvV+8tILmTuFbi1414D3Qj8aCah/X2/55w5DDDDHxkQ8f3KM5kzZ2acmXPO8Jz3fL5/PvdnAURERERERETCf9CuiYiIiIiIiBgSiYiIiIiIaARDIhEREREREekYEomIiIiIiEjHkEhEREREREQ6hkQiIiIiIiLSMSQSERERERGRjiGRiIiIiIiIdAyJREREREREpGNIJCIiIiIiIh1DIhEREREREekYEomIiIiIiEj3uT8L2vKMffrZZ+gfGMLg0CdwfvoZhv/0J/jwnyciIiIiIqJZ5pOQKMPhR3+4jusiIBIREREREdGta8Yh8eP+Qfxb78d6xXDJF+6C31134Y47Po/PL2JrViIiIiIiolvJjEJi37/349ofrivLMhwu9V/CYEhERERERHQLu+GQKCuIVz/6d2U54Iv+WLLYT1kmIiIiIiKiW9cNlf1kH0TZxFRiQCQiIiIiIlo4bigkykFqZAFSNjFlQCQiIiIiIlo4ph0SZRXRNYqp7INIREREREREC8e0Q6KcB1GSVUQOUkNERERERLSwTDvlyYnyJTnNBRERERERES0s0w6Jzk8/U67lPIhERERERES0sEw7JA7/6U/KNZuaEhERERERLTzTTnozmHufiIiIiIiI5jmWA4mIiIiIiEjHkEhEREREREQ6hkQiIiIiIiLSMSQSERERERGRjiGRiIiIiIiIdAyJREREREREpGNIJCIiIiIiIh1DIhEREREREekYEomIiIiIiEjHkEhEREREREQ6hkQiIiIiIiLSMSQSERERERGRjiGRiIiIiIiIdAyJREREREREpGNIJCIiIiIiIh1DIhEREREREekYEomIiIiIiEjHkEhEREREREQ6hkQiIiIiIiLSMSQSERERERGRjiGRiIiIiIiIdAyJREREREREpGNIJCIiIiIiIh1DIhEREREREekYEomIiIiIiEjHkEhEREREREQ6hkQiIiIiIiLSMSQSERERERGRjiGRiIiIiIiIdAyJREREREREpGNIJCIiIiIiIh1DIhEREREREekYEueJPls9SvclY9vXoxArLpuTUnGwqgXdA9oDaOEa7kRFstzvMSg679RW3up6ceJF9Vg2N/Rq63zolt1m/Wjcr26XjDqHto6IiIhofmFIvNmGulC7fyMSM/NR/T+W4KEdJqTsTEb03d1oLMvG7hQzGq9qj/XmWhuqD5iwWQmY2ThxTVs/mYFONFrzkG3aqJy0xn59I3Y/n4fqc10YHNYeM0vUUGxC4lb1hFme7CemmlFU1wbHbJ7zD3Shtcr9M6uvW9pgQ98sf2ZvnBfr8Ybcx/dmYPtag7pyXnGiu6kSRWJ/HTwzC4HvBkx1mzl7zqL6iBlpB06jT1t3U105jV82iWu/BDz5iFFdR0RERDTPMCTeTEM2lH/HhKKmTxD2tAV1NRbkfDsVu0zpyPnRKdT9IBlB18/i4IsWtHsKTiLknTiSim1JmSht7BSn8lPn7LAiI0mc9B87jQs9/drafnSfP43S3GQ8Lk6qHbMRmoYdaHSF4uZO9A1p68W777OfRe2RTKR8YwrB+AY4GvORlpQMc5n7Z1Zft/pwKp54Rmxn/f3MlX40v12j7Lvof4xD0CJ17fzSj0sNJagV+6v/JgXp0aa+zQba61Fadxb2/k+0NTeXvbES7eLamBSPSD91HREREdF8w5B40zjRWpaOCjsQmfUmipPDsXjMye7itenYlxEO9FhxtMGtaZqshh3LxLZtJhTW2fBpuAlZOyO0O6fg2mnse04NRItj0lFc2YTGd1rQ2FCPsr3xCBIPGWzKQ+6rNuVE3JfsVVk42CQCWmA8MotqcPKMeF352meaUH3UjC2B4kEyGP+XGvi0MV5PJfIO1MM+5I91pgK89kvX657SP7PTbhWh2fefeUJulaXt0f7qOprYrbrNnG04USWP6nAkxoaq64iIiIjmIYbEm8Rps6CozgnD+hw8v9V7s7OgrSZsF9ftJ1vQra7C4HtlMFvbMOgXii17rTj+w1Q8tGKqzRSduPCzg2iVFbN7s1Ccm4ww13MNyxCyyYwDe6Mg13RXFeHkFfUunxi24ddvdCmL27+dhe3hRhhcwXiRAQGr45GVnay8Nj44h3Zftg8MTEaeCIOJhypRsDMKQUu19Yv8xWfOQnaSug8cVcfx3hz2A3WvLK2b6i68zd2q22ywuQa18nsXswMPr1TXEREREc1Ht3hIHBkco9Smruk7X4mDmfFa/zzZx64QJ+yupoVj2ErUfmkv1qv9lWQfvTIz0pJi1PWPimBR1uKh2aUNpfL+5+qVapejqRAZj4rbW+Nx8IxW/7p6FkX/JPu9xSAxtxL2Uc0YHTh5tFL8Pxx70uIQoK31yHAf1sWK645zsGuhaXH0E9gVm4oCqxVZm0LHVSAndL0JtW/JWpkB23fHe2yqZ3wkFU+skEs2VJ/tVNb5RN9ldGvbwfAFL2f3S42QxUTpEx83bTSKALwncpl2y50BYX/799pyE+z/R1ucbVOqLGnHmquv6XC/CEklyEt1O8b3laB1ojDv7EX3uRqU5mciTe+LKQdHMiE7vxKtetPbEe1l6mPUSzwKW9X1rYfj3da7XVzfoQmM+26K9914eZp128m2mes7rV0SD7eo61vzkei2fuQyQR/eazaccP974NZvdvr9Vx349S/Oimvxvdsag8XqyjFm9vesryFbfZ9l2pNlX2Wxz3fLv01ivTIYVp3NQ3/jmf49IyIiooVm4VQSP9P6uj0vTjxtvVqTQdnHrgaFqWko/2CCk1FxV5+rj17VWdivaY+93oXmqmzsfsbquU/gxW78H3FSmru/Bu3Xxe2hXjTml6H5qjjpetGM2g/kyZwTfedKcPAtt7BlP4XqD8S1rCi4EpFX/jCuklWuFnz4e3UNDOFIyTVh3XLt9jQM/rYFzXLBT7y2lwE/HE01aP5YW27rUE4cfeKLy+Cqmf7mt57D5+CHbbArS0bc/UVlYY45fR5OvZleZUkcgB93ouK78Ug7UIlmu9sx3lwJc6oJFV6O8fbyeOzOLUT1GbFt3QKh81onLpwpgdm0A3muMDAr+tFuNeGJsd9N8b4PPmWa+Ls5xlxV4xwNZmwToarQ/e+B/C5r/WYTE8w4MZ0qe4f2nV9hwpapDE40k79nw38U3+F87JZ9lcU+75Z/mwSnCL2NR1KV/sYeA/2N/j0jIiKiBWfBhMTa3MeVvm5Bm8wo0/qbnawswHYlhHWh4qenvFc6LhYiQ+mjF6w036xuUPvIVRxI0PqqWXD0bbWZ5GgtKC2ohHNbgTgBb0L+JrmuCbWHi1B9LQpZleI9HIhXHtnd/L7eXNTeqv5iH/u19XpFwXm5HkVaxUD5xT9fVjDEexL3BQSsUh7T/buZjyzZ3SU7cwlrQ7FibBVxuBetPzZht9J3T1snThyv+io0GSIQ/Zh6guyw5qGwaUwwuVKP7/9AVluAoJ0bMacDfX6mXSMCgXdri7NqKpUld20o/k4qym1O9Rg/rvYj1Y/xoU6Ul9Sj29O+8g9HbFoeiq31qJPHtuyLKZ/7uuv70Y/mI1Y0uzWzDUsbeVzjO/XIilTXR+6td1vvdjkU77UifrHYhIxjnbgjJkt/341VU/xujjKFbRaePup9Ve+NUtdHmlHttn7kUoAtY35skf1xdx8+i0FZYd7p3n9V/E14JRXrZFPl62dRKALchSlV1Jy4cNqqfOfDvrkRIVOo/M/o79nb2di9XxwLfuFIeUXr9yv73maozcgHmw6iotVTyLyxv2dERES08CyYkOgcEifPSUUozopHiNbfzLAiCnu+naDeaD2PS177mjnFf+HYdVRtvhkgz6QWGWBcn4Uck1r7aq9ugn3cCXgXuq/FIW13FALE47/817L5mzghvGhD9HP7sGWFeA8h4VDOrzsc4qRT6sKlZnm6GIfoCG3Qjav12Jeej1pbP5aEhGLJgE2c1J2FfZURstXnkgDvfRanx4mBf9dODgPvGX1S3ydOEJ9JgPl4J5zi5HKXST0ZlO/XMbUz+CkwYN3TJUgJkRu4Cyf2P460QhFIB9TqRFpqvtJX0iC2+76kcOWEdm6IfdZ8XF28dwPWKU1tZ5fzfCVKp1NZEpxi24Q9bUXpXnGMKwepeoxnmlPVCu0HssKorB4lLNmCnKQ4hAUuw2K3lzKsFM/dn4UweWOoHhc8lstnTvlubspHWW6C/r6xfKrfzRE3ss2mzWnD65bT4oiA+HtSgkKTe/9V8TfhARMKSs3qd/pqJV6bSgX2Sj1eU5p4b8CjMVP7Ls/o75l4rjMwHnk/sWDXA1q/X9n39rF9yI6RD3CitqFJ+3vk7kb+nhEREdFCtGBComG9GQeejhjXP8+wKlQ9qcEA+r3+6h+MxJdFeFk9/sQzJCpePQG/2oRLHpqXhT1tQrR2Eufvp5WgAlOREuNl1MWBblzqENer70PgErmiFyeOyHBkQOTeN1FtsSq/+CtWrVKCnOELd6q3Z6wfH3mYWqLvogUZT2aj2u6EITwVxVUWpMSFY512v0/JAHr0TeRsDRUh0An72/lI2+bq5yRHHi3CG/sTEDSH0wPIQYSKtX6asYlxepPY2TMyhcNUK0uSElqS5XYbY3UUNinB1oHmdk8V7wkErsYabdHR57mv20wp382sDTDe0HfT5ca22XQ5L55CtfId2YAnHvfyQ8WKjfiGVhF3H1DKG9dAO4bHEvS/FZOZ0d8zvyhkHTIjetyPHf546Gtx6mLT+7gkN+YY0/57RkRERAvSggmJa6Ojxp2ETl0UvhbupTKxYpVaaUEnHFrfHndr/jpYW3KzPsL7SezVy8oJI+4LUpqywl6PSjkoyAoTntIm1756tU25jgya5bgy3I/2ylQ88ZwV7SKkhu0UAe2HJoTJ8Cre/x3qo2aBAQFfCUbguCD4Cbo7bOjW+kPOCVnFfaFSOdE3xL6E78zFybDbFA67N019H0f+rbfqqhFBWtKz/985HJp1imb23dTc4Dabrh67NtBNZJTarNQjA0LvU0pySkVtwkFs3Aba2fOPEV7233gz2mb3bcBDXqrhi8X3Tt16Dnzk4Xs27b9nREREtCAtnIFrZsuSZXqzzL6PZl5pcfb1Kn2T1gWpo244On6r3DbEuU7ExP0fqj/xB31FHYmz73fTrA555Y+7XSePH7cpg6BkyLkQ/UKReKgGxaYIBLhOBj9y4KK26FMDbSh/JgHZZadhvyMCu2SfqbfFaz8bjxA/2ezUguwnU1HR4aHM4WvivZS+qDVxDTGh8LkNU+gbOHO+n8LBH8tc/Sg/6vXcDPB6Fy40VKL8iBlpz5jcLgdxQnvIfDZX0144+7Xmo1oV35vFd7s2+MTNsefdtBdfXIa/VBYuo28uf4whIiKiWwpD4jQE/MeZV5kG+tST0DsWqWe6V7vVquHala7qiAM9SjqLQuCXlRX4ZHh0aLxxBixxVe8aLMogKIaQZORbreOmhnD29ytN+2RT3OAbGEXVo+Eu1L6QiQrZrHW9GRU1RUiRfab8jAjbZkZZlQW7ZEV3yIby5w6i2UPl1mdkQEzPRHWPWA5MRuF/TUXYXDRxne0J1b+0eEzQdaK7zoxtjyYj+3AJKurOwt7R6Xbpmv99y27ZSeinOzjRXFqJAKW5OxEREdF4DImT6fu91ufIgDt91TVQ8L9LhsReOGRIEYKMWkgbEOuUvkYj4UwNkr4ZdXPFX2n9HcXnCdmah9eOpiPSQwjUm92tD1UGz/GJD36lDjwim959O358c7ol4Uj5fg6i5fLQaZx4b+ajuXrU14IiLSDKCmKx2AZzEhCF2aksjRxHhi/cpS5onK3F2HPENVJnkQiJ2uii+sWCRO2x89VNqcZdvjzhiKuDH32kLU3wI8p0p72YC3oLAfH3bJ68JSIiIpp/GBIn4bS/D3Ue8Xis+U/Kgk8s8TYYzRWtz+LaIHxJWdGJS78RV37hCPZBWgsIW6/1sVyG6H+I89zvabgT7/5KrXiGPXjfhM3uMNCF1joLqhtsk04wLpvNqtXJryLQ22dZeo8eSlv/t9b0z5tpvLZOBsTnslGrBcQ5qyAqZqmy5OzApXPq4uYw90pbP947ow72gpgcHDJFwLhkZsng4tVJ9onP+Wibve+AhzGbxglarQ3s0toJu9cWz050vq9NJRN7n9q3eJzpT3sxF7r/Z4t6PKxej5AJv9hERER0O2NInMiwPEGtURaNSb6dt08dSXKkj6AyB6J4vRPlFuXEUhnGXlw5W+vxhji7NSbFaOFuhlbGYLMyPKIDbxyrh8NDuHKcsSivOemQ/U4bytOTYT5iRenhVDzxPS+TdLvoJ8r/gve8TQbeIwKPthj5Vz58bck9IMpRXOc0IAqzVFlynPkFauXCimQ8POrfdaLf1Y327gCPAavv3CntR5CJLINRmZ9P/Iv/vUM9PufKDLdZwAptIJahNnw4hcnvF98fpVayUYPXPc6NKvS4prQQwXXTyFyno1xvQu00p72YdWIbnKxWJ8GP3B7jJdwSERERMSRqrsBxdUxocXahsTALhfIM2i8Oad6Gw58m15yHnyr9DA1Yc98G5XZrsQm7kx9H4ftx2BIrXqmjGNmpydjxYg2c8vUfdasQiecOXu8fdekToVLlxKcfj77POSoILsPD3zIpJ4jOc/nIlfMU9mnPdfbC3iDWHZbVBjklRyZiJxqyv7MJFVozR8l57jTevabd8CBg7QZt+H4Hql9IR/l5BwZdb1t8JoetBoXfK1QrqeIzb3lwgj6Y03xt94CIcBMO5iTA+Ono7eR+Gb3NfGHmlaWrDsfo9yW2WXej3IeyabABsanfQtiog3QZgldpK97+GWo7tMQontfX04KK5zciMbdmSpOir3kwQT3+PyjGQWub1iR6tvmgGhf2ELYrPwTYUPqyBReujPmej7U0DilPq8GyXXwnM9w/qzxGz1uQ8Yx6jBrW5yDlAc9/FRxNx9Esrqcz7YXPfOxA99j+vNdtqHghW53eIzAVTz0y0/7NREREtJAxJCrO4mByDGIfTVZHfEyNx+ZNyTjY0CVOGjcgy5LnsxM9Q8AyZQj6C91qWWNxTCbytoVj8ZAc9TQCe36Qg6ynXsKWEJFr7L/HneEJyBn7+n2n8P1HN2Kb2yWtWB0AB2hDUar7fS/h12NKbIZ7U3HArI7k2S1CYdoO8dm/HoXYTfFIO1wvQoMBITtL8NJkUw18yTi6uulnhPGL2rIny+Px/KFkhMiT9iFx0vp8ArZtEq8rX/uRGKRkFuKEDHFyLkWxHSbc5tN87b7WX6gBUbJZkZ3svo3GX15T+k760A1MqD5Wc34CNj+yEbu1kUkTt8Vg9wG5v/wRvfdN5HiYviNsexYile0tQvIzG/VtnWjKFiG9H4sfSMeuTepjJ2JYm4yM9TIQOdF+LBMpW7X95rq8WD95JXe6fLDNYIhAYkaUEnCdcr8/qR3r+iUbJ8b8uBCSVIi8TTIojvms8hh9Xk4XI7+3WSj95zjPTbGdbagus4kFI56Im/q0Fz7TIT7no1HYnKSNYGsS+/3RVG2gKhMKSkyc0oKIiIgmxJCo8EfAcnEqd71LHfHR7oTxgTik7LWguiYfW3w5WEagNhn2b2ywy+tFRkQ/a0HdOy04WVWARDmh/woZTOUAI02oLspC7CwM1mF8JB91VUXY80gEglxhzG8ZQqKTRSitR5lpCpXTlSLAfi8BYeL5huVRIuBmTDo9QUBkOsrerER+WhzWhSwbeQ352to2r3jLghS5HSZyA699M93IhOpjLV4ut1c/urWRST9ZHoHYnWYUV50SocZLiFoRj3yr5/2cVVSPuleScf9Ewd5FHKdb9ovjIjcZ0auDfdefcgK+2GaScVMBjlvykBgdOrINJiK/k3srxXfPrDwnwNUkWdluCch8pQbHcxMQ5KWpsj7Qzr3JiF2trptT4n0GiM/pvKaNYHvNoL7vA5U4fjQV6ziqKREREU3ic38WtOUp6bisVsAC7/kL5fqWZitBbGalWEhG8TvpvunzN6l+NB/YiLxGI3YdrRFhSFtNC5ezDUWPZYrgEI7M1y3YPq3Qb0Pp11NRLZYSi1qwJ1xdu+DNaJvdTA7U/lMCij4wYPsrp5HppTnqbOhryEbi4RYg0ozqQ/ETDzhFRERENAFWEuecPx7cJPt3OVBe7nngGFpY5t2E6reAW3abzcdpL4iIiIimiSHxJjA8YEK27N/VKgcdOe05KA73o/ucTRm0g25l83lC9fnqVt1m83PaCyIiIqLpYnPTOW9uqhmyofw76aiQk7H5LUPY323E/UZZeRDh8L3z+G1HFwZvxvuieeY2bW5K08bmpkREROQrrCTeLHIEz6NyIBATYsP80X2mEhXHrKioboIDQXj42TyUVaYyIBIRERER0Zy6vSuJRERERERENAoriURERERERKRjSCQiIiIiIiIdQyIRERERERHpGBKJiIiIiIhIx5BIREREREREOoZEIiIiIiIi0jEkEhERERERkY4hkYiIiIiIiHQMiURERERERKRjSCQiIiIiIiLdwguJthLEfj0KsWU2bQURERERERFNFSuJREREREREpGNIJCIiIiIiIh1DIhEREREREekYEomIiIiIiEjHkEhEREREREQ6hsSFYLgf3edqUF51GvYBbd1cGe5Fe0Mlyuva0DesrSOar4YcaK2zoLqxE4M8XomIiIg8YkhcABxvZ2F3biEqyvKQll6Jbm397HPiwo8TkHG4BBVHMvFE4VkMaveQ77SXRXFaF5/oxYmXEmA+YkXpARMyjndp6xemPls9SvclY5s8dsRlc1IqDla1oHuuf0giIiKiWw5D4gLwh75ObUno6ZvDoNaPvqtObVlExr7r+ERbnoyz5yyqj5iRduA0+rR1RLPLgX97X1sUuh2/x8jRu4AMdaF2/0YkZuaj+n8swUM7TEjZmYzou7vRWJaN3SlmNF7VHuvJtTbUyu9mUoz648TWeKTtK8EJW6/2gNnTd74GRftMSNzqCrYm5JXVo/2a9oA50Y/mA9pnVy4laNfuISIiul0wJC4AYZtewpYQA+AXii3fS0CYtn72LUP0znSsWyoWl0Zgz66NCFDvmNRAez1K687C3j/VWEk0U+H4xv5khInj1bA8DjnfjIL41iwsQzaUf8eEoqZPEPa0BXU1FuR8OxW7TOnI+dEp1P0gGUHXz+Lgixa0e0jIjqZ87E7KRJH8bl7THjDUC3tzJQozE5Bmtc1OsB52oPlwMhKfL0Rtcyf6htTVzmudaK7KR4bJhHLb3ER6Z6sFBxsX5M8HREREU8aQuBCs2IAsSxMa37YiK8aorZwbhtXJKPhlCxp/WYTE1QvulJsWmMUPpKNYHK8nq/IQu0JbuWA40VqWjgo7EJn1JoqTw7F4kXaXZvHadOzLCAd6rDja4NDWqpwfWJC7vx7dIjqH7MjDa/J7/Y64vF2Dgp3hYq0T9mPi+WOeN3NOtL+ehbyGLuWHrsTcStSdUV/75OtFSAkXf1eGOlHxQg5OTFQB9YWhFpS+VCPekQFh94ZqK4mIiG4/DIlERAuA02ZBUZ2IN+tz8PxW7z8WBW01Ybu4bj/Z4tZ/2YGTJVbltmHbQRR/Ow5BsoWA5GfEOlMJCpOCxQ0RRIsrccGXhbYr9Th6TPYPNWD7Pgv2xAbr4dawMgK7Xi5BYqC4IQJccXWbeAezxYkL5YWoHRKvG/sSvhN/t7aeiIjo9vO5Pwva8pR0XL6iXAfe8xfK9bxjK0FsZiWQZEFjWri2cuGRg5lkVGk33EWaUX0ofoJmn7048WI8CluBxKIW7BGbqO98JUp/+iaabb3iNMkfQQ/EYUdaKraE+GvPcTfy/HEm2uau/TJlUciqKsCW5drNmXK9vmv7DHSi8Y1y/Pydc2qzuqXBiN6cjrSno2AcU31xcfZ14eJvfoVfN7fB/mEnuq/LtQYEhHwV62K/iSe2RiFoifJQ7+RItK31eOMXp3GhXWtWJ1475D9HYXvi49gSvkx9nBt9X3vcvk7YK9OR8apsBmhA5N43kb9pTEBw9qL7fBNONp3FhY4O2Hv6ldWG5aFYszYO33giHpGBnva1ZrgXF44X442T53BBe65H3o69cc+X22w9YpN24cmY0HHVrpmb4Bh14zr+vRroQuvbVvy88Twu2eV3Q5LvPRgBxhh853kTwrztb30//wrvnu9S+wmL/bzuwRhsFvs5dpLv1vS/mw7U/lMCij4IR6bVgu0yVHkl+9xtRF5jFHKOFyBW7rAOK1KesYh/RTz/dfH8leojR7l+GnmP5qFZLMZ+7xRyYiY4ZqbBfkw2Y3UA92ah4kcJ8BRvBxvN2HbgrFiKQ15dHqIn+57dAFlJ3fNPIij7idd4Mw9rWrKReLhF3JOM4nfS57AZPxER0c3HSuLt7DMHGuUAF8+XoFE5CZXEye35GhSmpqH8g9n7zf6mER+pT5wQZySZcLDKrd/V9S40V2Vj9zNWj321RMrEazuSYT5SicbzroAoOdFnb5vagCBXz6LwmXjszhXbW/wbrn5X8rXVPl/5ODHNATocDTkjATHDipfGBkShvVy+ZiGqz4hw6xbyZH+vC2dKYDbtQN4ZL00Ir4pgkBCP7DIRans+EQEpFCEhy8SruZEhd7VYv9xVenJzpX7k+dcM6uMC7xTb7CyqD5iwQwSTdtd2mEdkVS4tSexv+b71gCjJ/d0p9pcNXd7e90AbyvX9rAVESeznC2esOJgaL0JR28RTcEz3u2k/heoPxHXMDjw8YUCU/GFcJY+TFnz4e3WN/Xy9CIhCZDyiPQVEEXrbT/4Kv9VuNrZ3aEsz1Yl3tearkfExHgMiBmw40eB65dMisGuLvjTciZ+/LCup4nv0bAaiPRzKREREtxOGxFtUWJrWX0i7FCdpd0xDbe7jONjUj6BNZpRp/Y9OVhZoVYguVPz0lIeRR5dhyyH3165HVqR210TC092e04LqvVHqell9cls/cvFhFdHdxUJkPCeDSTC27LWiukG81pkmVBxIQJC422m34OjbnqdGWBIehz25FrxWdQontT5T7s/F9bMoOOZlGpAhG0pfNOOEXZzc+4Uj5UCl+trav1H3ugVZScG4U3v4VDjOmJF2uEUJiCE7S/DSY8Gjw5uLfzhi0/JQbK1Hnes1xeXk66593Y/mI1Y0j5sawYHa/5KHZhGIDeGpKK5rQrXFijJLPU7WWZG5Xnu1L8Th+RKxPmvD6CriUAuKUvOV5wc9VoDqunqUHRWPs55CY5X62k67FVk/8PXUKWOPUbdLlRmTHq7ONpS+YIVdhEDlu1HVNPJ8ua9+WYOyV76JNX7a492JsFGRnokKuZ8D45FZVKMfKyePi8+6NVTsI9m3LxPfn6Bv33S/m/ZWNeTFfm09Fqur4Lxcj6LMeGx2TX+RL0csFce+uC8gYJXymO7fyRFLe9F9SX0vhr9ZNb4SPNCJ2gM7kFEmgq22CnaHGipnqq8Ll5QfVgwIDRpfRR+01yAvJRWl50d+3LBf8ckrj2KvykN5j3gX67OQ+fXx74OIiOh2w5B4G3MOORGUVITirHiEaL+cG1ZEYc+3E9QbredxacHNqeYU/4VjlwgrWZtCESBzziIDjOLkMMek1jHaq5tgH1flEcGuKA+JseEIWu4Pg6uJpPZcZTAQwdnQhktjijzyNduP7UO1OAmFXxSyfmLBrvXB6mtL4t9YvDIcW9LSETvFYOy0lSA3Xw1XQUklKDbJgUU8C0u2ICcpDmGBy7DY7UGGlVHI3J+lNqMbqseFsSXUnhackNUphGL3d8c0rVwSiu1pGQiRy1fr8e5lZe0o9mq1f5dsRrjv21EIcG9WunzktZ2NRXjLV4UpX/hfv8VJpUoYhR27xHdjudtGk/tqqREhD0R4bFrcd8aihA1lPx8yY3u4UT9WDAGh2JJlwcEd6nHW+mPvffum990UQatZBqc4REdoTUDFPtmXno9aWz+WhIRiyYBNBNyzsK8yQo7XsyTAvWbXjwEtca5dMbqW57wsQ5ocLVWENBF6d+2IUO+42I0/qEszM9Cvhd0IfHlUF0AnuuvMeDy1UP2RYVMqEteq91xQgq0P9dTgv74qfxiKQkZGvNfm5kRERLeThRsSq1Ld5rkafTnyarbH9VO6PPd9ZHtaP6VL9rSbE84mw3ozDjwdMa5PmGFVqFZtGUD/PGwKODPBSHy5BCkeRmINiRIniHLhahMuqV1vpyzor7+qLTnw0cfaosvAOfyySq1+hKVlYcsMR9WUAXFPZqUyyEhQkgWlad4D4qQCV2ONtujoG9Pf8LoDasu+CKxRC0+jieeuUxYcGPijsjDC2YYT2mfe/q14BHk68Q6MwmblxN+B5vZ5NLH9HQaotaTL6JmoD+Y4XWiulX3YAGNSqpf9bMC67claMK9B80XPKXFa382BblySIXv1fQhUgmsvThzJR+uQ2kdVqf5maJX7VWql0PAF95r1ABzjQroIaQ352POUK6TloeInZqRE+XjET/0YczPUhROHTdh9RP4IEowtuTV4ba8JDyq/SPjYsAMnflyoVFfDMtJn/N0kIiJaKFhJvI2tjfY+SMvCFYWvySH1PVmxShucohMOvc+hD9jfR6OyEIHNkaMrNdMmK0QvaAHxsQIUPD2DgDiZu5ZofcTa8KGsjo3V04ELyoIRS+5SFkb02ERIkQtRCFnl7R0aEbxaXbJ3z6OJ7VfFIPFeueBA9fM7kJFfidaeXjgn6kMoucKa8Hf3TxCmVt6HB7Uw0nPNc1VsWt/Nq5fVyd7vC1KbPdvrUSkH7VlhwlOPqHvw6tU25ToyaArHnwhOjTKkHZbTYchm2ZUo3Runvp/Pqw+ZNVdOo/CZZBTK6TAC45H1EyuyYtX3fOcs/K3qe6cQxXJb3ZuF7G1y9FYiIiKSFl5IHNP3zdPl2acLPK6f0uUH/4wCT+vFxdXPLnJvvcf7Z62f3W3FhlKPVVrXZQbV2iXL9P5YfR95riAN9sgKmQVF+0xIe8btUlCvPWK8vquuKlkogmdSqeh5A3lPyQqRWI4048DYJpwTkYOmNFSi/Ih59Pt+5iBOaA8ZRw9LnSgtsKLdvemx7KdWVqxWge5NRuzYKs8fB7Q+a20oz3V/vdGXgpPKg0SK6cX4ls2zuK8nsigY21+2YJfyY0I/2pXBfeKxeVu8Fhi9VBeHrotHS1EI/LKy4IU4zrTBZXzRdNLZ16ts63VB6ogzjo7fKrcNcREIUY4Pcf+HagQP+opaI+37nXvldgmMWlj/9H/Xo/CpBByUIW3pBmTKkLZppK9rn8PHFV/ZdFdZcKLnTD52P5mHEz3A4pgsvHbUjC36DwziM3j6oWImrp9F6RHZpzcYu76b4LnaTUREdJtiJZHIg4D/OGZ4/6Eu1O7fiG2mTBSWWVHb3Al7h9tlWs0Sb1BgPL7hqna0vonaKY0+q/bt2vZoMrIPl6Ci7uzo993hNvrmWCIsPfzNOGVRjvaZsU2ExlQR7lJlYDKh6Jx4fREkcv4fz9MWqLTRQEe95shFHyXWf+m0Bu2ZdUtkH9QmVBeZkfJIOALkIDVDvVpgFMfB/hp0z5Om2AN9ahy/Y5EaqK52q1XDtStde8WBnovyeiS8fjLsHhr9cccXlZu4cNyih7SyinxsH1MF7h/4SF2IDFL6Ns6Yn0H7YaYN1a/KyqU/op+14s1cEdpGDQw00m9yStXQSfWjuXgfGsU+DNqZg2/MRlNWIiKiWxhDIt1iwrHHY5XWdZlBtbbv90ozTtlv7M5RicWJ1jJt8A45MukrNaNGCVUuRcnaY8e78y7XCCcfoXdGAwEtRdjThcjbJINiF6pfyEHt5YmDorO1GHuUvl0GhO0sEiHRbaRO5WJBovbYcYZa8JNDp5VBWFKeTUZ0iD8GZOCz9+KOwAjEphWhuiYfsROmBTnfpfvrebnkbtBH5Rwxi/t6igLC47HLbEG12G4VR/Owa706/cdgUyH2vOptYvcW9PybtuhRL/q0qphvAo/K/y75zkYqbkFGbZTOAbFOCbTBCNa2lxokIxCoDBazDMF/4wqD/liXZlFCWsi4gXn60dPeqSx5HAX1RixfhVBXGFwagT0/Oo68bR7mztSb8noeBXX6xL/XqO697mOpygiwYyvV6hyJUiUy9PUlatNeIiKiBY4hkW6u9x2YaGrBueS0vw91/vV4rPlPyoJq4Bx+XaeeUEY/V4hdDxhHjRI6mcV/dZ/WpE5OoD9xqJvUIiOiswqRJaefkFNMpOfghNcN2I/3ztSoQSYmB4dMETAumfob7zv7C3V00q3fxK5t6ciTU19oAa3OWoScpAjvzV3vcQ2w0jZJYLpFyFFsV8ch5UA9itPU/obOt94dPejK8tVYowXmCx9O0Czzyvt4T9lnRqwJ8UXgUS0ZNRiNmytan8W1QfiSsqITl34jrvzC9ebPIffFa01K78fmzeHjQ5p0/Rwalc61Bmy+b+IBbAZ7WlBrrcQJ22TNaUOxdpN2TN7/D9hyr+cJ+gffa1D79frFY637d9ODPls9qq013psFExER0aQYEummCFihNZscasOH0xxJdFYMO/DrX9Qoi8akjVjrnqX0vmbAimUeTmKHe9H6L66qgweBUeLkV12s/bEPJo8XQXHLP5cgUfZrE0Gx8MV8NHsMik70u9743QEeKnXihPrcKS0Yj3e1e4LPNJmA9Xg4Ri44UftmPRyTDfpyCzF+2dsAJ6F4aJNaGbS/KkKKx/3sRGt1sRraPPXlnAF1dFp/3K0FP2UORDl6Z7lF7R86JKd/Ee+gtR5viOPFmBSjDdQkYt99G7Fded5ZvPGmTf1hYRQn2t+0olkurjBhy6gvyGjODyzIMGWj6FgJCjMTYD4zUVA0YM3f71CbKzdZ8brNw48oQza8/vpZZdGYFI91E/zO0XcmG09k5qP0WCHMpjSUe22SPVmV2m0uVySjWF+frm8zIiKihYwhkW6OsIewXWlmZkPpyxZcuOLtZM7XrsBxdcxrObvQWJiFQpmW/OKQ9viYEUMDVun9o2qra2B39aNz9qL7nBXZCfEwvzXRgB5GbH4mWR15sqcSWd+R89c5RkbLHHZi8IoNJ8pK0DjVgVj8xEnuITMi5fvqqUfeiyUewucyBLv6lL39M9R2aIlRvF5fTwsqnt+IxNwarYnteF8yqnM/4m0Lys87MHi9X7lMOsqnwh/RiSblMzvP5WP3dy3jRgh1yukPGmtQlGudV034Bm01qG20ofua+Lzuh4rcbh31KLWeVm4aHntIqxCPCHk0E7FynwzVwPxMPk50jHxmZ1+nMrWDWalKByMlXZtyZYZccx5+qvQzFKHrvg3K7dZiE3YnP47C9+OwJVYcBx3FyE5Nxo4Xa+CUx/mjbtVAQzi+sStKOe67q9KRZW3TmqgKQw5csIp1VfIYD0ZiTrI2II5n9n+1uh1TIhQ3toya+H8sQ/jj2CUr40oT6nTlWNO32ZU2lIt1yhyjgcnISZyogtmLd8VrjeyyLlT8q9o8loiIiKbnc38WtOUp6bisln0C7/kL5ZpG9DVkK/1Y5Oim+Zt814xsnGv1MCfle60AjRJpRvWheLf+Q7048WK8Eoi8vk/935f9ycb0+7KVIDazUrsxiSQLGtO0oOGBQ2yv3WJ7jYlsGg+vPRNj3/fSYIQYxYnpcC967OJEXlm3AVk/yscWdZDIUSZ+r7If1+MwlllwYoL37WjKR+5+OTiHN56f214WhYwqseBpe14V+8o14qk4iS4+mo4wVx8vyf1+DxY/kI5vLC9BeYOH42HIhvLvpKPC7vlTS4sDQ3H/+mSkPBHnoQ/bVD6z4GdC8dupc1OhcfvuJBa1YI+Hw9P1PZ6IITwVxS+bEOK+rTXODiuynpugYuwXisR9hdgTOfa7d4PfTbsVKakWOHYUofHbEUr1UA7K8kqdDZ8uj8Lu/QeR+MVzKPzePpywq/0s97yQhdhxx7kT7dZUZB3r9HqcR5utyNOm1fDGUZeKlCM27ZYM00WozYgY/cPLWJMda3KApNLJ+r86caE4DtlvjfwbYc/WoHjbjUXxkeNAVhJZQSQiotsLK4l00xg3FeC4JQ+J0aEIWqqtnHX+CFguTlevd6kjbIqTUuMDcUjZa1EGYfEUECX5Xt94JR2xDwTrzTYNy0MRnWRGcdUpFCRFeGzO6c4YY8ZrVRZk7YzDuhB1ABRJ/jvrHjEhq8g8/VC8Ih4vvexWpfz+mFE3xf351iLseSRiZBv7LUNIdLJ4vXrUvZKM+7WRLccz4A7X/IcyVK8OVS9u732wpxPNVXlIS8r22DfS22dW/r3oBGTmWlHx1hwFxCm68yvrkSi2V8jqkX2tcL3nA5U4/kPPAVEyrBaht6oS+WniMweONE9eLAf72ZmHsjetHgLiDIigrvT//I1N7SMp+60+a0HdOy04KYJk4mqx1VdsQJZFDlokR2z1FBAlA8JMVv07qYzoKonPve6RdBSI43yygCgZt76EvG3hYtsZELA+HcVPTxIQJb9w7Dpaj7JcOUDSyHGibLMpDZAkGbDuaQv2KIML+SNsWz5ytvqiVktERHT7YSXRh+askkjTp1cSWRWYmpGqlmG9CHr748dP7i6bX9rr8cpzhUql0rDTgpMm75XjeUGvxEUgq7IIWyYNHreCfjQf2Ii8RqMIWjVI0eY8JCIiIrpRrCQS0XjXWtCstWfenughIEqLDAhYHYVoLZQ4P1Gv5zOn3aY2015xP0J91ZT5pvPHg5sSYIAD5eULa5AgIiIiujkYEoloPL+lInqoWptb4PDUVWy4H/a3ClGsTNRuROLfTjwtwpz5oBIHq07DfsVtkJ1hJxznLcj6fr24YUDkrvgJB1+51RgeMCFbDv7Smo/cwtOeg6LYX93nbOpIp0REREQTYHNTH2Jz03mMzU2nyYnuuhzsOTIyWI/sOxnoGgFpyAG7Pg+dP6L3WpGnTf9w0004uJIBITsL8IMnIzzPBXgrcx/8xW8Zwv5uI+6XgzNBhMP3zuO3HV0Y5PFPREREU8CQ6EMMifMYQ+INcV614dcNx/HOe53oVEKGRg5+E/YA1kXHYXNM1BwOPDQFsmLWehq1DfVobutEnxzIRw6+8mAMNv/j44hd7XnC9gVBVneb3sTPG5rw7nltf8l9FRiONZv/HlsiYxCyYtJhZIiIiOg2x5DoQwyJRERERER0q2OfRCIiIiIiItKxkkhEREREREQ6VhKJiIiIiIhIx5BIREREREREOoZEIiIiIiIi0jEkEhERERERkY4hkYiIiIiIiHQMiURERERERKRjSCQiIiIiIiIdQyIRERERERHpGBJ9qK8hG7Ffj4K5oVdbQ0REREREdGthSCQiIiIiIiIdQyIRERERERHpGBKJiIiIiIhIx5BIREREREREOoZEIiIiIiIi0jEkEhERERERkY4hkei2ZkPp16OmNHXLYE8LqvNTkbhVfXzso8nIK6tH+zXtAURERES0IDAkEtHEhnvR+mMTdpiyUfobB0IeMSFlpwnb1/Tjvap8ZJhMKLc5tQd7MNCJRmsesk0b1XD59Y3Y/Xweqs91YXBYe8xsEu//QlUe0rRwO7vzmPbixItaiJ7o8mI9+rRnEBEREc03DIlE5N2wA40HkmE+3gnjpjxU1NUj/9lU7DKlIvNAPU6+bkYkOlHxQg4aPVQUnR1WZCSZcPDYaVzo6dfW9qP7/GmU5ibj8QOn4ZitoDjcD3tDITIS4pFddhr2IW09EREREU2IIZGIvOqu24eDTf0ISipCcVYcjIu0O1xWxuOlfQkwDLWg4GdtGFVPvHYa+56zoF2Es8Ux6SiubELjOy1obKhH2d54BImHDDblIfdV2+jnzZQIh93nrMhO2Ii0wzVo/zQcKVkmrNPuniuRe+vVz+vpcigeAdrjiIiIiOYbhkQi8uxaPUqLbUCgCdm7IrB4bEDUGCITsGc14HzrLC7qac+JCz87iFZZvbs3C8W5yQhbYVDvMixDyCYzDuyNglzTXVWEk1fUu3xi8BzKcy24cN2AkK1mlFVZsCvSiDu0u4mIiIhoYgyJNC19Ddlqn6oyER6ka22ozs/E7kfVvlabk1JxsM7mta+Z/nxXnyytv5jeX+3RZGQfqYd9QHm4Z+I57Q0lyEuNx2b5HOV1Tcg7UoMLngZRsZUoj8l+26E0n2w+koptynPy0HhVfYijqRAZ8jNsjYe5qnNcZUt/35NdvPU1c/ai+1wNSsW2StP75qnvOzu/Eq16U8zxfLLNhL7zNSjaZxoZeEb2DXzmIE5o948mQ14hWkWM2/5tE8K0fOdZMNZEG8V1PS79L3UNrjeh9i25FcXzd8cjyEPAND6SiidWyCUbqs92Kut8YmkMvmGKw65XalCWFY+QJdp6IiIiIpoShkS6McN/FMEqH7uTMlF6pg3d19XVzms2NIoQJvuaTTYwR//lGuRp/cX0/mrXu3ChLh9p6SVKM8VxrtQrz8k4XIlme68e5pzXOtFcV4jspI3IaxBh0IMLv7uM9lezkCdDrLjtvHYaB39yFg4RInP316BdfoahXrSW5eHnduUpPtNeHo/duYWoFtvK7hYI5fu+cKYEZtMO5J3x/L7d3dA2G+pE9fMbkfh8IWqbO9GnP6Yf3R1dyrYYZ+AcTsqQt8KELQ9MmBAVxnvuE/93orNbHRRm8LctaJYLfjvw8FrPz3c01aD5Y225rQOTf/qpMiBsZx5SHlim3SYiIiKi6WBIpBvzdjZ2769Ht184Ul6pwckzLWg8cwplGWoTwsGmg6hoHVuPc9PzJl5KL0Tzp6HYsteK6ga1r1ZdUSrClPsrcXRsaLp+FgdT89Eswpwh3IR86ym9j9fJ14uw6wF/8aB+NB9OR+lIu8cR50pQUPUJth+oR+PbBdgi17XUoPBoJRzrzag404T8TXJlF5rf75ILuoBNBSP9ycZcThYlK/3rZEUtMWWj575m/uGITctDsbUeddpnVZ77egG2B8oHiPd9xIrmiaqBN7LNhh048f1UlJ4XgXJphFJdU/aVfP2GU6i2ZiFae6i7wbZ/QaO4Nv5DFEJcVcC+NlTsS1aqsMr0F/mymmnGiWvA4rvvVh7S2q2+fndXk3KNtaFYMbaKqI2WulvsB30wmYvduDoXI50SERER0aQYEunGDDnhDIxH3k8sIpwZYZBBYJE/Qh7bh+wY+QAnahuaPFeppKtd6L5jA7IsVmRtCkWAVmxaHJ6MJ7epy+3vve9WjXSi/c0iNMpQEZiMwpdTERkoQ6HKsDICKYfEvxUpbzlQ/d/qx1emerrgiM3EU+uXAX73IGS1WDfUhgsfbED2C/EwLjIg5KtRykPt/3eStpsuV+ux74VKdIvFoKQc7A73XDULS7YgJykOYYHLsNjtIYaVUcjcn6WGvKF6XGifIFhPe5uJsNdchuJz4t/0i0JWaRFSXPtKMvgjIHA1lBafozhx6eJpcW3EpshQddWQDaXPZaK8WYTnwFARikWQPiOrmSsRvFzcv9SIEPWRghMD/659jsB7RofmvhaUPpOgjJbq9AvHLlO8dofYN5OVnm8xrYfjtWa9aqhOez4P5Q02OCbYxURERETzAUPiLBh1cjjqko2f/NDT+ileXkzzvH4qF1/PyyZDxyEzosclDH889LU4dbHpfVzyekIsQ0s+tqzUbupEUPsbNahh+BP1WnK24ddVauyLfvJbCPNTFkdbZMTDiQlKJRMf1KO1R1nrJhx7ntyAxcqyP+74orKAoKd3IXapujwtskpXXKgMzmJYb8aBp8PV154uEdTWaIuOPu99E6e9zdCPd//1tIhsIu4lpWLL+DToRRc6W+V1FEKVKqcI6Mf2oVpsz6AkC45brXjt+8nyDiAySA2Zfga3MNiPj7S+nu76LlqQ8WQ2qu1OGMJTUVxlQUpc+JyPOnpTXO+C/fxpVBxORcpjk8wrSURERHSTMSTSjblvAx7yEjoWfyUYchgTWdH7SOtzNl4wgr08X2/a6T5NQE8nlNwigkvkV0cqiGMZVkdozSc7PVSmvoq/VkLPaJFf1apl0yKC06tZKNSqdBkZshKp3TVrprnNhjvwodbq8++m8xkHHOiRIW9tKP5Spt6Bc/ilEtA34InH1SDc59Ca465a5bl5rbvhfrRXpuKJ56xoH5L9BYvwxg9NCJMDyohttrBGHV2GLYe05rxul5N1NSjem4x18seIIe/zShIRERHNBwyJPjRRvzX1UoCnvutp/RQvh8o8r5/KZS7nZfviMvylsnAZfV5D4jT9cUBrPiqCkmze6M2SZfrn7L6qDqIyG5w2CwqqZFAKRuLLB6dWpZMDzDRUovyIGWnPmNwu3kYYnaE+h9IMVvF57Xoq+j5SnxdiVMO+/X2lfyLW/70acoSrV9qU68gg9ecA/Fu3FuIlf9zt2h4ft6Hiu/HIkHMh+oUi8ZAIS6YIBLgC9UcOXNQWFzLDEiPCNqWjoNQMpUX0UAvKz/hwRFciIiIiH2JIpFm0EgELcfqBKfZDHOFEd50Z2+RUFYdLUFF3FvaOTreLlxFGb5brDiiDuy66S7npuKKGGcNfu/oX9sLxodpcMugr2giin6lXamg0YImrOXCDRWlaaQhJRr7Vij2Ro0ccdfb3K81hJw3/C8WKGGyJVRcd/2+Hb5uAExEREfkIQyL5nl4dMuDOG+qkN5EudE3UTG+gVz/x1gOML8l+iEfyp9UP0dlajD1HzoogqDa1rKhrGlPptSBRe6xPLbpTW7gxRn/1k/3hd2rVcO0KrWooQ+JleR2FwC8rK/QgGbRC3eYr/krrIyk+c8jWPLx2NB2RHkJgj71FXVgf6mEAnYXIH0u+pC0SERERzVMMieRz3f+zRa0OrV6PEF+1cQ2+D2oBpgX2y94H/XB2tKnz8yEOa4KVBR/S+iHKdpV+Uch+dir9EPvx3pkadXvE5OCQKQLGJT5Pzp4F3INQraLX/TvPTW+dradQqy2PtdjPy/uUg7AoA9MEw6js337YL8ogGaX3+QwIW6+O2IpliP6HOM/babgT7/5KbUQc9uB9EzeHHuhCa50F1Q029M3xVBmDPS2otVbihM0HzZfFZ770G3XR+NXVc9cEnIiIiGgaGBLJt4bacLJarSpFbo/R5g/0gSX340Flag2g9qf16PYUFIa7cPI1NZAZHvsHPOjjpq7OixYcdOuHGDul5pFO9LsGLL07QBtZdbS+c6fc+vP5UijWPKIutTa1jGva6OywIuslLcB64JoGZPFfqIPeXFTmQHTiQkWZFsQ/wadyP/Scxs9lp8WYODzkSj0rY7BZm47kjWP1cHjYX44zFryhhM0NeDTGVaX0wGlDeXoyzEesKD2ciie+d3rOmmk6P7Agw5SNomMlKMxMgPnMzILiyGcOR+Lf3ciASURERESzjyGRbszHDnRf15ZdrttQ8UI2quVJcGAqnnrEl809/RGbnKqGzg8Ksee7Fly4MhJvnFfaUP5dE4o+EDdkle+bEZM2A50W2Q8xt1IZPCdo51T6IbosQ/Aq7bFv/wy1HVpiHHair6cFFc9vRGJuzcgAMz5lwNqHk9XBZ1oLsa/ShkEZ1ob7YW/IR8ZzFrQvT0biJvkAN645D4f/qNwMCotR/g1nVRZ2m+KRffxObNkkm5PW4PupJiQ+U4h2EZx3Jce5heBlePhbJmV/Oc/lI7ewHvY+bX85e5XXzz0sK84GRO7NnHgKks4mVLhNZ+I8dxrvTjIyqHOgH4PX3S4fO/Gpdt+nQ72j7/OWkgX7v1rd9o0TrY3jw/akxL4evGJDbaEJu/XP/BK2exhpl4iIiGg++NyfBW15SjouX1GuA+/5C+Wabi99DdlIFCe6LobloQiU1aMhB+w9agAyhJhw8AepWOehkjfy/GQUv5OuNUmcOkeTCBf7672HqqUbkPlDcQLuCmaSrQSxmZViwf01e3HixXil6WhiUQv2hCsrR95fkgWNadpK9KP5wEbkKUN8Ts7931OIgGl+Su3H6MniB9LxjeUlKG+ACA/1yN80OlzPbJs50V5mQoZSAR1DbKuc0nwYa6PE/W6vPXAWB7eZ0bjWjIofxIuA6IS9KgfmYyIg3RGO7c++hMwH+1H9vQyUnu/H4sANePKFHCTeO35qEscZM9LyZX9MTwwI2VmCYtMk/Tqv1CDjSRlENX4JKHgrC+u8Pmlk306Fp23u4qhLRcoRm3ZLVqiLUJsx0Q8QNpR+PRXV2q1x/EKx5bl8ZMVOUDklIiIiuslYSaQb47cMAUtFBLmmjdB5TZzwRycg80Aljh/1HBB9wRhjxmtVFmQlbUDIctepugEBIRtEeClCxc/zRwdEn3BrMnojVsQj31qEPY9EIMhVMRPbLyQ6GVlF9ah7JRn3axP7+54BYU+XoWxvAsJc22tpMKKT8lBWkY9YT6PFLAnCmtXi+uJ52JUWp2LfJhWg+u0WNP7SgkzZNFROZ/HKKWXgnTprvseAKBkfyUddlefPnmOpR9lkAVFamYCc74n3L55vWB6FPT/ImCAg+pZx60vI2xaOxfIYW5+O4qdvoEItP+8DcUjZa0HFW1YGRCIiIpr3WEmkadGrWpFmVM/l3Is0p+yVCUh71YHo3FPIi/UcAMkz54AThrkanIiIiIhoFrCSSETjhGxIVpq1Nv/kp7jgpZksecaASERERLc6hkQiGm9lPJ7ZGQxcrUTOC1a0qwOdjjbshMPWojVJJSIiIqKFgs1NaVrY3PQ2MuxA4wETDjbJDpn+CIqOQ/Qq2fRUhMNLbbjQ3om+oShkVRVgy5SmAyEiIiKiWwEriUTk2SIjYr93CtWvZGF7tBH9bTWoOGYVl3rYB5ZiXaIZBdZ9DIhERERECwwriURERERERKRjJZGIiIiIiIh0DIlERERERESkY0gkIiIiIiIiHUMiERERERER6RgSiYiIiIiISMeQSERERERERDqGRCIiIiIiItIxJBIREREREZGOIZGIiIiIiIh0DIlERERERESkY0gkIiIiIiIiHUMiERERERER6RgSiYiIiIiISMeQSERERERERDqGRCIiIiIiItIxJBIREREREZGOIZGIiIiIiIh0DIlERERERESkY0gkIiIiIiIiHUMiERERERER6RgSiYiIiIiISMeQSERERERERDqGRCIiIiIiItIxJBIREREREZGOIZGIiIiIiIh0DIlERERERESkY0gkIiIiIiIiHUMiERERERER6aYdEj/3uc9pS0RERERERLTQTDskLvoP6lM+G/6Tck1EREREREQLx7RDouGOzyvXn376mXJNREREREREC8e0Q+JivzuV66E//lG5JiIiIiIiooVj2iHRf4mfcj3w//2RTU6JiIiIiIgWmGmHxDs+/3ks1YLi9f4B5ZqIiIiIiIgWhmmHROnuLy1VRjmV1cSBwSFtLREREREREd3qbigkymril5d9UVnu+7ifQZGIiIiIiGiB+NyfBW152vr+vR/X/nBdWV7yhbuw1H8JPr/ohnInERERERERzQMzConSx/2D+Lfej+H6Z2RY9LvrLtxxx+cZGImIiIiIiG4xMw6J0qeffYaP/nAd1wfY7JSIiIiIiOhW5pOQ6CLDYr8IioNDn8D56WcY/tOf9AojERERERERzX8+DYlERERERER0a2OnQSIiIiIiItIxJBIREREREZGOIZGIiIiIiIh0DIlERERERESkY0gkIiIiIiIiHUMiERERERER6RgSiYiIiIiISMeQSERERERERDqGRCIiIiIiItIxJBIREREREZGOIZGIiIiIiIh0DIlERERERESkY0gkIiIiIiIiDfD/AwgCqKQ8Z1utAAAAAElFTkSuQmCC;" vertex="1" parent="1">
          <mxGeometry x="236" y="230" width="355" height="86.68" as="geometry" />
        </mxCell>
        <mxCell id="M14YiBmKtO4GHtCGdOZ9-12" value="Peer Dependencies" style="rounded=1;whiteSpace=wrap;html=1;" vertex="1" parent="1">
          <mxGeometry x="170" y="540" width="120" height="60" as="geometry" />
        </mxCell>
        <mxCell id="M14YiBmKtO4GHtCGdOZ9-13" value="Dev Dependencies" style="rounded=1;whiteSpace=wrap;html=1;" vertex="1" parent="1">
          <mxGeometry x="354" y="540" width="120" height="60" as="geometry" />
        </mxCell>
        <mxCell id="M14YiBmKtO4GHtCGdOZ9-14" value="Prod Dependencies" style="rounded=1;whiteSpace=wrap;html=1;" vertex="1" parent="1">
          <mxGeometry x="510" y="530" width="120" height="60" as="geometry" />
        </mxCell>
        <mxCell id="M14YiBmKtO4GHtCGdOZ9-16" style="edgeStyle=orthogonalEdgeStyle;rounded=0;orthogonalLoop=1;jettySize=auto;html=1;entryX=0.383;entryY=0.167;entryDx=0;entryDy=0;entryPerimeter=0;" edge="1" parent="1" source="M14YiBmKtO4GHtCGdOZ9-1" target="M14YiBmKtO4GHtCGdOZ9-13">
          <mxGeometry relative="1" as="geometry" />
        </mxCell>
        <mxCell id="M14YiBmKtO4GHtCGdOZ9-19" value="Dependencies can exist as git repo urls&lt;div&gt;in package.json&lt;/div&gt;" style="rounded=0;whiteSpace=wrap;html=1;fillColor=#d5e8d4;strokeColor=#82b366;" vertex="1" parent="1">
          <mxGeometry x="340" y="330" width="120" height="60" as="geometry" />
        </mxCell>
        <mxCell id="M14YiBmKtO4GHtCGdOZ9-21" value="without --all flag&lt;div&gt;only the top level dependencies are listed by npm ls&lt;/div&gt;" style="whiteSpace=wrap;html=1;rounded=0;" vertex="1" parent="1">
          <mxGeometry x="55" y="310" width="120" height="60" as="geometry" />
        </mxCell>
      </root>
    </mxGraphModel>
  </diagram>
</mxfile>
